<svg xmlns="http://www.w3.org/2000/svg" width="44" height="44" viewBox="0 0 44 44">
  <g id="icon-Rugby-44x44" transform="translate(0.272)">
    <g id="编组" transform="translate(25.164 1.14) rotate(45)">
      <path id="椭圆形" d="M12,0c5.107,0,12,9.031,12,17.5C24,26.006,17.173,35,12,35S0,26.006,0,17.5C0,9.031,6.893,0,12,0Zm0,3C10.866,3,8.59,4.616,6.7,7.1A17.408,17.408,0,0,0,3,17.5,17.469,17.469,0,0,0,6.663,27.907C8.551,30.395,10.821,32,12,32s3.449-1.605,5.337-4.093A17.469,17.469,0,0,0,21,17.5,17.408,17.408,0,0,0,17.3,7.1C15.41,4.616,13.134,3,12,3Z" fill="#19263c"/>
      <path id="椭圆形-2" data-name="椭圆形" d="M12,0c5.107,0,12,9.031,12,17.5C24,26.006,17.173,35,12,35S0,26.006,0,17.5C0,9.031,6.893,0,12,0Zm0,3C10.866,3,8.59,4.616,6.7,7.1A17.408,17.408,0,0,0,3,17.5,17.469,17.469,0,0,0,6.663,27.907C8.551,30.395,10.821,32,12,32s3.449-1.605,5.337-4.093A17.469,17.469,0,0,0,21,17.5,17.408,17.408,0,0,0,17.3,7.1C15.41,4.616,13.134,3,12,3Z" fill="#19263c"/>
      <rect id="矩形" width="3" height="19" rx="1.5" transform="translate(10.5 7.5)" fill="#19263c"/>
      <rect id="矩形-2" data-name="矩形" width="7" height="3" rx="1.5" transform="translate(8.5 10.5)" fill="#19263c"/>
      <rect id="矩形备份" width="7" height="3" rx="1.5" transform="translate(8.5 15.5)" fill="#19263c"/>
      <rect id="矩形备份-3" width="7" height="3" rx="1.5" transform="translate(8.5 20.5)" fill="#19263c"/>
    </g>
    <rect id="切图范围" width="44" height="44" transform="translate(-0.272)" fill="rgba(255,255,255,0)"/>
  </g>
</svg>
