<svg id="icon-Specials-44x44" xmlns="http://www.w3.org/2000/svg" width="44" height="44" viewBox="0 0 44 44">
  <path id="形状结合" d="M30,7a3,3,0,0,1,3,3h2.707a2,2,0,0,1,2,2q0,.068,0,.136L37.629,13.2,37.3,19.98A4.314,4.314,0,0,1,33,24H31.639A11.223,11.223,0,0,1,24,28.886V32.8h2a1,1,0,0,1,.993.883L27,33.8a1,1,0,0,1-.02.2H28a2,2,0,0,1,0,4H17a2,2,0,0,1,0-4h1.02A1,1,0,0,1,19,32.8h2V28.886A11.223,11.223,0,0,1,13.361,24H11.707a4.314,4.314,0,0,1-4.3-4.02L7.077,13.2,7,12.136Q7,12.068,7,12a2,2,0,0,1,2-2h3a3,3,0,0,1,3-3Zm0,3H15v9.5c0,3.59,3.91,6.5,7.5,6.5S30,23.09,30,19.5ZM11.707,13H10.071l.326,6.776a1.314,1.314,0,0,0,1.183,1.218l.128.006Zm22.929,0H33v8l.128-.006a1.314,1.314,0,0,0,1.183-1.218Z" fill="#19263c" fill-rule="evenodd"/>
  <rect id="切图范围" width="44" height="44" fill="rgba(255,255,255,0)"/>
</svg>
