<svg id="icon-Virtual-Football-44x44" xmlns="http://www.w3.org/2000/svg" width="44" height="44" viewBox="0 0 44 44">
  <path id="形状结合" d="M22,6a16,16,0,1,1-4.519,31.353,6.964,6.964,0,0,0,1.334-2.748,13.021,13.021,0,0,0,10.433-1.812l-2.7-2.7H18.369a7.028,7.028,0,0,0-3.354-3.41L13.2,21.094,9.163,19.937a13.09,13.09,0,0,0,.59,6.432,6.98,6.98,0,0,0-2.607,1.587A16.01,16.01,0,0,1,22,6ZM34.844,19.98l-4.06,1.165-2.193,6.748,2.944,2.944A12.954,12.954,0,0,0,35,22,13.1,13.1,0,0,0,34.844,19.98ZM22,15.708l-5.984,4.347L18.3,27.09h7.4l2.285-7.035Zm1.5-6.622v4l6.931,5.035,3.61-1.035A13.013,13.013,0,0,0,23.5,9.086Zm-3,0A13.013,13.013,0,0,0,9.976,17.049l3.637,1.043,6.887-5Z" fill="#19263c"/>
  <path id="形状结合-2" data-name="形状结合" d="M12,26a7,7,0,1,1-7,7A7,7,0,0,1,12,26Zm-1.5,3.687H7.707L10.5,37h3.151l2.7-7.313h-2.95L12,34.315Z" fill="#19263c" fill-rule="evenodd"/>
  <rect id="切图范围" width="44" height="44" fill="rgba(255,255,255,0)"/>
</svg>
