<svg xmlns="http://www.w3.org/2000/svg" width="44" height="44" viewBox="0 0 44 44">
  <g id="icon-KOG-44x44" transform="translate(0.482)">
    <path id="形状结合" d="M37.164,7.845l-.616,2.76a12.95,12.95,0,0,0-.441,4.5l.007-.012a15.31,15.31,0,0,1-1.27,16.67l-.368.485-.756-.259-2.084,2.028.242.727-.521.363a15.86,15.86,0,0,1-9.15,2.879h-.063a15.906,15.906,0,0,1-10.512-4l-.676-.6,4.742-4.6.574.446a9.174,9.174,0,0,0,5.641,1.939h.034A9.094,9.094,0,0,0,31.12,22.2,8.777,8.777,0,0,0,29.2,16.664l-.468-.6ZM12.59,8.909A15.993,15.993,0,0,1,32.32,9.958l.679.6L28.278,15.2l-.579-.446a9.194,9.194,0,0,0-5.658-1.9,9.1,9.1,0,0,0-9.172,8.993,8.794,8.794,0,0,0,1.939,5.53l.485.591L6.893,36.2l.6-2.765a13.223,13.223,0,0,0,.424-4.5A15.3,15.3,0,0,1,9.124,12.263l.366-.485.756.257L12.306,10l-.242-.715Zm8.893,7.27v3.64a2.123,2.123,0,0,0,0,4.17v4.655s-.657-1.1-.969-1.175a5.724,5.724,0,0,1,.969-11.29Zm1.485-1s.654,1.1.969,1.168a5.721,5.721,0,0,1-.889,11.3l-.027-3.635h.015A2.123,2.123,0,0,0,23,19.838Z" fill="#19263c"/>
    <rect id="切图范围" width="44" height="44" transform="translate(-0.482)" fill="rgba(255,255,255,0)"/>
  </g>
</svg>
