<svg id="icon-Badminton-44x44" xmlns="http://www.w3.org/2000/svg" width="44" height="44" viewBox="0 0 44 44">
  <path id="矩形" d="M17.629.446a4.736,4.736,0,0,0,3.9.928A19.119,19.119,0,0,0,24.311.549l.29-.1a1,1,0,0,1,1.3,1.223L19.453,23.762h-13L.04,1.775A1,1,0,0,1,1.364.565a9.653,9.653,0,0,0,2.925.809A7.575,7.575,0,0,0,8.282.24.835.835,0,0,1,9.512.3a5.12,5.12,0,0,0,3.441,1.071A5.3,5.3,0,0,0,16.415.32.925.925,0,0,1,17.629.446Zm-8.9,2.948-.337.15a10.467,10.467,0,0,1-4.107.83q-.105,0-.213,0l-.157-.011L8.7,20.762h8.5l4.79-16.424-.293.042a7.754,7.754,0,0,1-4.67-.811l-.085-.047-.138.069a8.9,8.9,0,0,1-3.526.78l-.327,0A8.859,8.859,0,0,1,8.975,3.52Z" transform="translate(21.221 4.573) rotate(45)" fill="#19263c"/>
  <path id="形状结合" d="M0,13.854a67.521,67.521,0,0,0,7.265.4,58.311,58.311,0,0,0,6.752-.413m-4.039-.293L11.285,0M4.612,13.547,3.3,0" transform="translate(23.291 10.548) rotate(45)" fill="none" stroke="#19263c" stroke-width="3" fill-rule="evenodd"/>
  <path id="矩形-2" data-name="矩形" d="M10,0V2A5,5,0,1,1,0,2V0Z" transform="translate(11.103 25.938) rotate(45)" fill="none" stroke="#19263c" stroke-width="3" fill-rule="evenodd"/>
  <rect id="切图范围" width="44" height="44" fill="rgba(255,255,255,0)"/>
</svg>
