<svg id="icon-Cycling-44x44" xmlns="http://www.w3.org/2000/svg" width="44" height="44" viewBox="0 0 44 44">
  <g id="编组" transform="translate(39 36) rotate(180)">
    <circle id="椭圆形" cx="3" cy="3" r="3" transform="translate(21 21)" fill="#19263c"/>
    <path id="路径-2" d="M3.03,20.913c.963.2,1.223.162,3.8-.314a12.45,12.45,0,0,1,6.688.194,1.5,1.5,0,1,0,.915-2.857,15.251,15.251,0,0,0-8.148-.287c-1.979.366-2.268.4-2.657.324-.247-.05-.394-.223-.58-1.008-.121-.558.265-.988,1.915-2l.337-.206A10.193,10.193,0,0,0,7.136,13.44a8.919,8.919,0,0,0,.9-.987A6.338,6.338,0,0,0,9.169,6.817,19.04,19.04,0,0,0,8.262,4.01l-.035-.09-.106-.265c-.294-.735-.889-2.2-1.082-2.7a1.5,1.5,0,0,0-2.8,1.087c2.652,6.82,2.68,6.945,1.419,8.572a5.936,5.936,0,0,1-.6.654,7.977,7.977,0,0,1-1.332.936l-.334.2C.7,14.061-.389,15.271.123,17.629.563,19.489,1.51,20.6,3.03,20.913Z" transform="translate(7.909 3.419)" fill="#19263c"/>
    <path id="路径-2-2" data-name="路径-2" d="M4.108,11.372a1.5,1.5,0,1,0,.269-2.988c-1.488-.134-1.8-1.041-.891-2.557a6.344,6.344,0,0,1,6.619-2.718A1.5,1.5,0,0,0,10.612.153a9.333,9.333,0,0,0-9.7,4.136C-1.024,7.529.162,11.016,4.108,11.372Z" transform="translate(17.641 12.906)" fill="#19263c"/>
    <path id="椭圆形-2" data-name="椭圆形" d="M7,14A7,7,0,1,0,0,7,7,7,0,0,0,7,14Zm0-3a4,4,0,1,1,4-4A4,4,0,0,1,7,11Z" transform="translate(20)" fill="#19263c"/>
    <path id="椭圆形-3" data-name="椭圆形" d="M7,14A7,7,0,1,0,0,7,7,7,0,0,0,7,14Zm0-3a4,4,0,1,1,4-4A4,4,0,0,1,7,11Z" fill="#19263c"/>
  </g>
  <rect id="切图范围" width="44" height="44" fill="rgba(255,255,255,0)"/>
</svg>
