<svg id="icon-Stock-Car-Racing-44x44" xmlns="http://www.w3.org/2000/svg" width="44" height="44" viewBox="0 0 44 44">
  <g id="赛车游戏" transform="translate(3.748 8.602)">
    <path id="形状结合" d="M9.548,1.09A1.342,1.342,0,0,1,11.9.477,7.307,7.307,0,0,0,15.92,2.99a20.268,20.268,0,0,0,6.67.033,24.91,24.91,0,0,1,6.685-.148,8.106,8.106,0,0,1,5.978,4.711L28.7,25.434a1.339,1.339,0,0,1-2.413.226,7.483,7.483,0,0,0-4.469-2.476,24.891,24.891,0,0,0-6.685.148,20.274,20.274,0,0,1-6.67-.034,7.239,7.239,0,0,1-3.716-2.169L2.37,27.591a1.272,1.272,0,0,1-1.564.778l-.061-.02A1.135,1.135,0,0,1,.07,26.891l3.007-8.185Zm14.831,15.9-1.317,3.586A7.961,7.961,0,0,1,26.8,22.424l1.317-3.586A7.968,7.968,0,0,0,24.379,16.989Zm4.19-11.406A19.414,19.414,0,0,0,24.2,5.439L22.888,9.024c-1.526.124-3.047.3-4.573.424l1.317-3.586a19.411,19.411,0,0,1-4.364-.145L13.95,9.3a7.967,7.967,0,0,1-3.736-1.849l-1.437,3.91a7.963,7.963,0,0,0,3.736,1.849l-1.436,3.91.547.078a20.524,20.524,0,0,0,3.818.067l-1.317,3.586c1.526-.124,3.047-.3,4.573-.424l1.317-3.586a19.426,19.426,0,0,1,4.364.145l1.437-3.91a7.965,7.965,0,0,1,3.735,1.849l1.436-3.91a7.967,7.967,0,0,0-3.736-1.849ZM7.342,15.274,6.024,18.86A7.961,7.961,0,0,0,9.76,20.709l1.317-3.585-.327-.07A8.025,8.025,0,0,1,7.342,15.274Zm14.11-2.34-1.436,3.91c-1.526.124-3.047.3-4.573.424l1.437-3.91C18.4,13.235,19.925,13.058,21.451,12.934ZM13.95,9.3a19.445,19.445,0,0,0,4.364.145l-1.437,3.91-.551.03a18.331,18.331,0,0,1-3.813-.175Zm8.938-.279a19.4,19.4,0,0,1,4.364.145l-1.436,3.91a19.435,19.435,0,0,0-4.364-.145Z" fill="#19263c"/>
  </g>
  <rect id="切图范围" width="44" height="44" fill="rgba(255,255,255,0)"/>
</svg>
