<svg xmlns="http://www.w3.org/2000/svg" width="44" height="44" viewBox="0 0 44 44">
  <g id="icon-Snooker-44x44" transform="translate(-0.11)">
    <path id="椭圆形" d="M22,6A16,16,0,1,1,6,22,16,16,0,0,1,22,6ZM10.44,16.819c-1.889,5.19.366,10.775,5.037,12.475s9.989-1.129,11.877-6.319S26.988,12.2,22.318,10.5,12.329,11.63,10.44,16.819Z" fill="#19263c"/>
    <g id="_8" data-name="8" transform="translate(11.785 11.644)">
      <g id="形状" transform="translate(6.573 0) rotate(28)">
        <path id="路径_110081" data-name="路径 110081" d="M6.462,6.1a2.422,2.422,0,0,1,1.139.9A6.161,6.161,0,0,1,8,9.827a6.8,6.8,0,0,1-.316,2.407A2.575,2.575,0,0,1,6.453,13.5,5.165,5.165,0,0,1,4,14a4.987,4.987,0,0,1-2.37-.475A2.838,2.838,0,0,1,.378,12.268,6.464,6.464,0,0,1,0,9.661,10.548,10.548,0,0,1,.187,7.537,2.139,2.139,0,0,1,1.364,6.1a1.955,1.955,0,0,1-.936-.954A3.862,3.862,0,0,1,.116,3.481,3.34,3.34,0,0,1,1.081.87,4.187,4.187,0,0,1,3.967,0,4.071,4.071,0,0,1,7.035.924a3.767,3.767,0,0,1,.848,2.64A3.311,3.311,0,0,1,7.6,5.139,2.891,2.891,0,0,1,6.462,6.1ZM4.574,3.2a2.19,2.19,0,0,0-.121-.9.478.478,0,0,0-.462-.221.452.452,0,0,0-.449.237,2.275,2.275,0,0,0-.116.887V4.222a1.854,1.854,0,0,0,.133.841.475.475,0,0,0,.449.233.455.455,0,0,0,.449-.229,2.458,2.458,0,0,0,.116-.945ZM4.64,8.8a2.207,2.207,0,0,0-.158-1.029.545.545,0,0,0-.5-.254.512.512,0,0,0-.478.246A2.37,2.37,0,0,0,3.36,8.8v1.749a2.443,2.443,0,0,0,.162,1.124.565.565,0,0,0,.511.25.485.485,0,0,0,.482-.254,3.217,3.217,0,0,0,.125-1.145Z" transform="translate(0 0)" fill="#19263c"/>
      </g>
    </g>
    <rect id="切图范围" width="44" height="44" transform="translate(0.11)" fill="rgba(255,255,255,0)"/>
  </g>
</svg>
