<svg id="icon-Bowls-44x44" xmlns="http://www.w3.org/2000/svg" width="44" height="44" viewBox="0 0 44 44">
  <path id="椭圆形" d="M22,6A16,16,0,1,1,6,22,16,16,0,0,1,22,6Zm0,3A13,13,0,1,0,35,22,13,13,0,0,0,22,9Z" fill="#19263c"/>
  <path id="路径" d="M19.323,6.223c3.988-.944,6.267.1,7.4,2.08A13.5,13.5,0,0,1,7.871,26.466l-.123-.077-.106-.1c-1.5-1.4-1.965-3.286-1.6-5.652l2.965.456c-.225,1.465,0,2.363.681,3l-.1-.1.182.11a10.433,10.433,0,0,0,4.859,1.387L15,25.5A10.5,10.5,0,0,0,24.121,9.794a1.46,1.46,0,0,0-.728-.649,5.381,5.381,0,0,0-3.378,0Z" fill="#19263c"/>
  <ellipse id="椭圆形-2" data-name="椭圆形" cx="4.5" cy="4" rx="4.5" ry="4" transform="matrix(0.719, -0.695, 0.695, 0.719, 11.137, 17.389)" fill="#19263c"/>
  <path id="路径-2" data-name="路径" d="M30.647,8.379A16,16,0,0,1,17.5,33.5c-3.424,0-6.33-.681-8.547-2.334l1.793-2.405c1.607,1.2,3.917,1.739,6.754,1.739A13,13,0,0,0,28.184,10.091Z" fill="#19263c"/>
  <rect id="切图范围" width="44" height="44" fill="rgba(255,255,255,0)"/>
</svg>
