<svg xmlns="http://www.w3.org/2000/svg" width="44" height="44" viewBox="0 0 44 44">
  <g id="icon-Baseball-44x44" transform="translate(-0.146)">
    <path id="椭圆形" d="M22,6A16,16,0,1,1,6,22,16,16,0,0,1,22,6Zm0,3A13,13,0,1,0,35,22,13,13,0,0,0,22,9Z" transform="translate(-0.03)" fill="#19263c"/>
    <path id="路径" d="M37,19.5v3A16.5,16.5,0,0,0,20.693,36.466l-2.965-.457A19.5,19.5,0,0,1,37,19.5Z" transform="translate(-0.03)" fill="#19263c"/>
    <path id="路径-2" data-name="路径" d="M23.37,8.086l2.976.375A19.5,19.5,0,0,1,7,25.5v-3A16.5,16.5,0,0,0,23.37,8.086Z" transform="translate(-0.03)" fill="#19263c"/>
    <path id="形状结合" d="M22.681,11.211l2.762,1.172a1,1,0,0,1,.53,1.311l-.391.921a1,1,0,0,1-1.311.53l-2.762-1.172a1,1,0,0,1-.53-1.311l.391-.921A1,1,0,0,1,22.681,11.211Zm-3.342,5.542L21.6,18.721a1,1,0,0,1,.1,1.411l-.656.755a1,1,0,0,1-1.411.1L17.37,19.017a1,1,0,0,1-.1-1.411l.656-.755A1,1,0,0,1,19.338,16.752Zm-5.415,3.886,1.268,2.719a1,1,0,0,1-.484,1.329l-.906.423a1,1,0,0,1-1.329-.484L11.2,21.906a1,1,0,0,1,.484-1.329l.906-.423A1,1,0,0,1,13.924,20.638Z" transform="translate(-0.03)" fill="#19263c" fill-rule="evenodd"/>
    <path id="形状结合-2" data-name="形状结合" d="M12.033.08l2.762,1.172a1,1,0,0,1,.53,1.311l-.391.921a1,1,0,0,1-1.311.53L10.861,2.841a1,1,0,0,1-.53-1.311L10.722.61A1,1,0,0,1,12.033.08ZM8.228,5.5l2.264,1.968a1,1,0,0,1,.1,1.411l-.656.755a1,1,0,0,1-1.411.1L6.259,7.767a1,1,0,0,1-.1-1.411L6.817,5.6A1,1,0,0,1,8.228,5.5ZM2.813,9.389l1.268,2.719A1,1,0,0,1,3.6,13.437l-.906.423a1,1,0,0,1-1.329-.484L.094,10.657A1,1,0,0,1,.578,9.328L1.484,8.9A1,1,0,0,1,2.813,9.389Z" transform="translate(33.723 33.023) rotate(180)" fill="#19263c" fill-rule="evenodd"/>
    <rect id="切图范围" width="44" height="44" transform="translate(0.146)" fill="rgba(255,255,255,0)"/>
  </g>
</svg>
