<svg id="icon-Virtual-Horse-44x44" xmlns="http://www.w3.org/2000/svg" width="44" height="44" viewBox="0 0 44 44">
  <g id="Horse-Racing-2" transform="translate(9.607 6.5)">
    <g id="Horse-Racing">
      <path id="形状" d="M17.4,21.347v3.6a1.472,1.472,0,0,1-.25.813l-.1.135-3.98,4.6a1.455,1.455,0,0,1-2.325-1.738l.118-.16,3.624-4.194V20.791a1.435,1.435,0,0,1,.185-.7l.083-.136.107-.133,1.075-1.192-1.019-1.121a1.44,1.44,0,0,1-.335-.642l-.03-.155-.012-.179V12.387a1.457,1.457,0,0,1,2.905-.164l.009.161V15.97l4.4,4.846a1.44,1.44,0,0,1,.335.64l.03.155.012.179v1.7a1.852,1.852,0,0,0,3.7.184l.008-.189.041-11.3A2.943,2.943,0,0,0,24.632,9.7l-.2-.119-1.181-.632a1.46,1.46,0,0,1-.744-1.53l.044-.187.937-2.961-.854.423-.324.1-1.186.216-1.144.224c-.439.088-.773.157-1.09.226L17.837,5.7c-7.7,1.784-11.678,4.25-15.159,9.557a1.456,1.456,0,0,1-2.44-1.589C4.258,7.537,8.881,4.715,17.687,2.75l1.12-.241,1.161-.234.6-.115,1.021-.19L25.26.153A1.461,1.461,0,0,1,26.652.2l.124.081a1.45,1.45,0,0,1,.574,1.407l-.009.036-.04.166L25.692,6.958l.119.064a5.853,5.853,0,0,1,3.057,4.615l.018.256.007.309-.04,11.292a4.766,4.766,0,0,1-9.526.258l-.007-.257,0-1.145L17.9,20.791Zm6.868-9.737a1.869,1.869,0,1,1-1.617-.929A1.855,1.855,0,0,1,24.267,11.61Z" fill="#19263c"/>
    </g>
  </g>
  <path id="形状结合" d="M12,24a7,7,0,1,1-7,7A7,7,0,0,1,12,24Zm-1.5,3.687H7.707L10.5,35h3.151l2.7-7.313h-2.95L12,32.315Z" fill="#19263c" fill-rule="evenodd"/>
  <rect id="切图范围" width="44" height="44" fill="rgba(255,255,255,0)"/>
</svg>
