<svg id="icon-Virtual-Greyhounds-44x44" xmlns="http://www.w3.org/2000/svg" width="44" height="44" viewBox="0 0 44 44">
  <g id="dog" transform="translate(13.321 6)">
    <path id="形状" d="M0,15.249,2.242,1.019A1.156,1.156,0,0,1,3.069.047,1.206,1.206,0,0,1,4.25.35L8.028,4.3h5.432A4.71,4.71,0,0,1,17.24,6.245l.354.486h5.9a1.241,1.241,0,0,1,.886.425,1.365,1.365,0,0,1,.3.972l-.472,3.281a7.237,7.237,0,0,1-6.2,6.138l-5.078.608v8.629A1.2,1.2,0,0,1,11.689,28a.52.52,0,0,1-.3-.061l-.954-.245" fill="none" stroke="#19263c" stroke-linecap="round" stroke-linejoin="round" stroke-width="3"/>
    <path id="路径" d="M13.553,8.11a1.869,1.869,0,1,1-1.617-.929A1.855,1.855,0,0,1,13.553,8.11Z" fill="#19263c"/>
  </g>
  <path id="形状结合" d="M12,24a7,7,0,1,1-7,7A7,7,0,0,1,12,24Zm-1.5,3.687H7.707L10.5,35h3.151l2.7-7.313h-2.95L12,32.315Z" fill="#19263c" fill-rule="evenodd"/>
  <rect id="切图范围" width="44" height="44" fill="rgba(255,255,255,0)"/>
</svg>
