<svg id="icon-LOL-44x44" xmlns="http://www.w3.org/2000/svg" width="44" height="44" viewBox="0 0 44 44">
  <path id="形状" d="M11.195,12.331a14.5,14.5,0,0,0,.083,19.431m23.393-2.706A14.5,14.5,0,0,0,22.937,7.53" fill="none" stroke="#19263c" stroke-linecap="round" stroke-width="3" fill-rule="evenodd"/>
  <path id="矩形" d="M13.433,6H18a2,2,0,0,1,2,2V37H14V11.442l-1.506-4.1A1,1,0,0,1,13.433,6Z" fill="#19263c" fill-rule="evenodd"/>
  <path id="矩形-2" data-name="矩形" d="M14,31H32.82a1,1,0,0,1,.986,1.164l-.527,3.164A2,2,0,0,1,31.306,37H14.18a1,1,0,0,1-.986-1.164L14,31Z" fill="#19263c" fill-rule="evenodd"/>
  <rect id="切图范围" width="44" height="44" fill="rgba(255,255,255,0)"/>
</svg>
