<svg xmlns="http://www.w3.org/2000/svg" width="44" height="44" viewBox="0 0 44 44">
  <g id="icon-DOTA-2-44x44" transform="translate(-0.109)">
    <path id="形状" d="M32.365,7H11.635A4.648,4.648,0,0,0,7,11.635v20.73A4.648,4.648,0,0,0,11.635,37h20.73A4.648,4.648,0,0,0,37,32.365V11.635A4.648,4.648,0,0,0,32.365,7ZM18.886,31.982H13.779a.725.725,0,0,1-.725-.725V26.146a.724.724,0,0,1,1.235-.514L19.4,30.743A.727.727,0,0,1,18.886,31.982Zm12.8-6.375-3.27,5.145a.675.675,0,0,1-1.07-.029L11.588,13.927a.675.675,0,0,1,.843-1L31.459,24.574A.675.675,0,0,1,31.691,25.607Zm.379-6.476a.724.724,0,0,1-1.235.514l-5.111-5.111a.723.723,0,0,1,.514-1.235H31.35a.725.725,0,0,1,.725.725v5.107Z" fill="#19263c"/>
    <rect id="切图范围" width="44" height="44" transform="translate(0.109)" fill="rgba(255,255,255,0)"/>
  </g>
</svg>
