<svg xmlns="http://www.w3.org/2000/svg" width="44" height="44" viewBox="0 0 44 44">
  <g id="icon-Asian-Game-44x44" transform="translate(-0.109)">
    <path id="形状结合" d="M22.073,3c.2,1.419.4,2.839.607,4.258q.394,2.67.805,5.337a5.866,5.866,0,0,0,.245.819.306.306,0,0,0,.476.211,2.293,2.293,0,0,0,.6-.378,5.712,5.712,0,0,0,1.467-2.55A4.133,4.133,0,0,1,29.057,7.87c.064-.023.137-.032.327-.075a7.325,7.325,0,0,0-1.453,3.295c-.134,1.18-.239,2.366-.356,3.546.038.02.076.04.111.061q3.96-3.042,7.923-6.081l.128.13c-2.378,2.807-4.752,5.614-7.159,8.459.111.023.2.043.28.055a6.282,6.282,0,0,0,3.921-.828,7.829,7.829,0,0,1,2.17-.736,2.341,2.341,0,0,1,2.334.808,6.458,6.458,0,0,1-.8.234,5.156,5.156,0,0,0-2.707,1.344,11.577,11.577,0,0,1-2.4,1.812l.336.124a1.168,1.168,0,0,0,.172.043c1.949.32,3.9.626,5.849.943,1.021.167,2.039.352,3.06.531a.984.984,0,0,1,.193.075c0,.035.006.069.009.1-.376.063-.753.138-1.132.188q-3.8.5-7.594.992c-.525.069-1.053.124-1.575.211a2.076,2.076,0,0,0-.476.2,2.132,2.132,0,0,0,.309.456,9.872,9.872,0,0,0,2.433,1.457,17.144,17.144,0,0,1,1.791.92,3.756,3.756,0,0,1,1.464,1.944,1.742,1.742,0,0,1,.038.294l-.006.014a2.019,2.019,0,0,1-.49-.19,5.736,5.736,0,0,0-3.606-1.047c-.77-.023-1.543-.066-2.313-.1-.067,0-.137.012-.315.026.2.291.347.539.525.764q2.674,3.293,5.353,6.578a1.6,1.6,0,0,1,.3.539c-.268-.19-.54-.378-.8-.577q-3.54-2.7-7.08-5.392a5.751,5.751,0,0,0-.823-.514c-.315-.167-.461-.092-.408.251a16.3,16.3,0,0,0,.455,2.158,16.875,16.875,0,0,0,.721,1.676,3.989,3.989,0,0,1-.382,3.7c-.044.006-.085.012-.128.014a2.721,2.721,0,0,1-.131-.684,4.039,4.039,0,0,0-1.357-3.119c-.613-.652-1.144-1.382-1.712-2.074-.073-.089-.155-.167-.318-.34-.321,1.907-.63,3.707-.928,5.507s-.586,3.615-.881,5.421c-.032,0-.064,0-.1.006-.02-.153-.047-.306-.064-.462q-.438-3.384-.878-6.771-.267-2.038-.537-4.073c-.044-.335-.271-.473-.589-.286a2.228,2.228,0,0,0-.6.557,9.654,9.654,0,0,0-1.505,2.674A4.146,4.146,0,0,1,15.83,35a6.08,6.08,0,0,1-1.027.361l-.1-.11a2.847,2.847,0,0,1,.178-.5c.184-.32.4-.623.6-.938a3.46,3.46,0,0,0,.493-1.59c.079-1.044.2-2.086.3-3.127.012-.113.015-.228.029-.459-.239.144-.4.228-.548.335q-3.593,2.622-7.182,5.253c-.123.089-.251.17-.373.254l-.079-.072q3.518-4.1,7.054-8.231c-.067-.038-.125-.092-.184-.1a5.792,5.792,0,0,0-2.29.167c-.881.32-1.762.643-2.658.923a3.307,3.307,0,0,1-2.2.038,8.066,8.066,0,0,1-.995-.537c.012-.029.023-.061.038-.089.3-.046.6-.069.9-.141A8.474,8.474,0,0,0,10.909,24.5c.546-.439,1.167-.788,1.75-1.183a.84.84,0,0,0,.166-.2c-.073-.049-.143-.13-.222-.147-.793-.144-1.584-.3-2.383-.413-2.29-.326-4.58-.635-6.87-.955A.65.65,0,0,1,3,21.432a1.672,1.672,0,0,1,.3-.1c1.858-.277,3.717-.557,5.575-.822,1.027-.147,2.057-.265,3.084-.392.405-.052.811-.089,1.214-.144.344-.049.455-.242.248-.516a2.285,2.285,0,0,0-.709-.646c-.922-.49-1.867-.938-2.8-1.4A4.41,4.41,0,0,1,8.1,15.861,1.631,1.631,0,0,1,7.8,14.632c.055.017.123.017.16.049a5.3,5.3,0,0,0,3.127,1.266c1.076.1,2.162.127,3.244.185a2.249,2.249,0,0,0,.233-.026,1.762,1.762,0,0,0-.175-.355q-2.359-2.83-4.729-5.652c-.405-.488-.8-.987-1.193-1.483a.171.171,0,0,1-.012-.167c.56.4,1.123.8,1.68,1.209,1.949,1.425,3.895,2.856,5.849,4.273a5.607,5.607,0,0,0,.9.522c.376.173.513.084.449-.314a15.782,15.782,0,0,0-.382-1.633c-.306-1.114-.668-2.213-.942-3.332A2.369,2.369,0,0,1,16.6,7.12a9.427,9.427,0,0,0,.219.978c.611,2.576,2.4,3.747,2.938,4.587a4.216,4.216,0,0,0,.321.4c.041-.006.079-.012.12-.02a6.724,6.724,0,0,0,.181-.661q.731-4.336,1.459-8.669A2.9,2.9,0,0,1,22.073,3ZM22,17a5,5,0,1,0,5,5A5,5,0,0,0,22,17Zm0,1a4,4,0,1,1-4,4A4,4,0,0,1,22,18Z" fill="#19263c" fill-rule="evenodd"/>
    <rect id="切图范围" width="44" height="44" transform="translate(0.109)" fill="rgba(255,255,255,0)"/>
  </g>
</svg>
