<svg xmlns="http://www.w3.org/2000/svg" width="44" height="44" viewBox="0 0 44 44">
  <g id="icon-Formula-1-44x44" transform="translate(0.269)">
    <path id="路径" d="M33.263,30.74A2.8,2.8,0,0,0,36,27.9V13.678a2.8,2.8,0,0,0-2.737-2.839s-3.908.038-6.158,0S25.644,8,23,8H12.737A2.8,2.8,0,0,0,10,10.839V36.58c0,.779.423,1.42,1.175,1.42s1.158-.64,1.158-1.42V27.9h9.3c2.794,0,1.378,2.839,4.105,2.839Z" fill="none" stroke="#19263c" stroke-linejoin="round" stroke-width="3"/>
    <path id="形状结合" d="M21.5,12a1.5,1.5,0,0,1,0,3H17v2h4.5a1.5,1.5,0,0,1,0,3H17v3.5a1.5,1.5,0,0,1-3,0v-10A1.5,1.5,0,0,1,15.5,12Zm6,15a1.5,1.5,0,0,1,0-3H28V18.141a1.5,1.5,0,0,1-1-2.723l1.638-1.147.029-.02.066-.042-.095.062a1.515,1.515,0,0,1,.155-.1l.06-.03.064-.029.067-.026.061-.021.069-.02.079-.019.04-.008q.047-.009.1-.014l.052,0c.032,0,.064,0,.1,0h.048l.07,0L29.5,14a1.516,1.516,0,0,1,.175.01l.06.008.08.015.033.008c.035.008.071.018.105.029l.02.007c.034.011.068.023.1.037l.056.025.061.03q.041.021.081.045l.03.019c.026.016.052.034.077.052l.041.031c.023.017.046.036.068.056l.032.029c.022.02.045.042.066.065l.035.039.045.052q.025.031.048.062l.015.021.02.029q.022.033.042.066l-.062-.095a1.515,1.515,0,0,1,.093.151c.011.021.022.042.033.064s.02.043.029.064.018.044.026.067.014.041.021.061.014.045.02.069.013.053.019.079l.008.04q.009.047.014.1c0,.018,0,.037.005.055s0,.05,0,.074,0,.027,0,.04V24h.5a1.5,1.5,0,0,1,0,3Z" fill="#19263c" fill-rule="evenodd"/>
    <rect id="切图范围" width="44" height="44" transform="translate(-0.269)" fill="rgba(255,255,255,0)"/>
  </g>
</svg>
