<svg xmlns="http://www.w3.org/2000/svg" width="44" height="44" viewBox="0 0 44 44">
  <g id="icon-Motorcycle-Racing-44x44" transform="translate(0.384)">
    <path id="矩形" d="M18.012,17.322h4a1.5,1.5,0,0,1,0,3h-4a1.5,1.5,0,0,1,0-3Z" fill="#19263c"/>
    <path id="形状" d="M25.441,21.238A14.06,14.06,0,0,0,33.7,15.514a22.884,22.884,0,0,0,2.376-3.774,6.225,6.225,0,0,0,.562-1.591,1.929,1.929,0,0,0-1.859-2.492l-.372.009c-.17.009-.352.024-.892.073-2.569,0-4.478-.154-6.36-1.75C24.584,3.808,23.723-.053,20.472,0l-.218,0-6.61,0H13.2A8.338,8.338,0,0,1,5.688,7.379H5c-2.583,0-5.47,4.416-4.94,6.728.252,1.106,1.049,1.565,2.286,1.573a8.263,8.263,0,0,0,1.292-.118L5,15.344a2.146,2.146,0,0,1,.226-.026h.029a16.929,16.929,0,0,0,6.163-.919l.414-.156.407-.16.034-.014.527-.211.249-.1.026-.009.07.059a9.64,9.64,0,0,0,4,2.311l.241.054.229.043a14.292,14.292,0,0,0,4.056.089l.154-.019L20.9,17.736c-.057.09-.114.18-.17.272l-.171.282-.134.238c-.04.073-.077.148-.108.217a1.881,1.881,0,0,0-.162.544Q19.283,22.031,25.441,21.238Zm-.616-3.744c.536-.839,1.065-1.713,1.574-2.539l.075-.132c.023-.045.023-.045.046-.095a1.857,1.857,0,0,0,.1-.853v-.16l-.052-.106-.145-.293a1.4,1.4,0,0,0-.857-.818l-.123-.038-.4-.069a1.02,1.02,0,0,0-.289,0l-.242.046-.312.088-.2.063q-.59.189-1.191.34a9.855,9.855,0,0,1-4.621-.045,5.422,5.422,0,0,1-3.129-1.6,3.178,3.178,0,0,0-.251-.2,2.816,2.816,0,0,0-2.67-.3l-.242.087c-.162.063-.324.127-.725.287l-.152.061c-.426.17-.613.243-.735.287a16.055,16.055,0,0,1-4.96.8l-.65,0a5.652,5.652,0,0,0-.805.087l-.309.051a2.116,2.116,0,0,1,.309-1.007A3.941,3.941,0,0,1,5,10.427h.323c3.624.018,9.03-2.163,10.118-7.05V3.1l4.712-.044c.465,0,1.539.7,2.841,2.2l.181.211q3.251,4.043,5.184,4.719a11.889,11.889,0,0,0,4.664.614l.254,0-.2.342q-.318.52-.667,1.02l-.356.494L31.8,13c-1.988,2.607-5.387,5.175-6.724,5.284l-.176.008h-.585Z" transform="translate(40.511 28.738) rotate(180)" fill="#19263c"/>
    <path id="椭圆形" d="M8.481,22a7,7,0,1,1-7,7A7,7,0,0,1,8.481,22Zm0,3a4,4,0,1,0,4,4A4,4,0,0,0,8.481,25Z" fill="#19263c"/>
    <path id="椭圆形-2" data-name="椭圆形" d="M8.481,31a2,2,0,1,0-2-2A2,2,0,0,0,8.481,31Z" fill="#19263c" fill-rule="evenodd"/>
    <path id="椭圆形-3" data-name="椭圆形" d="M35.481,22a7,7,0,1,1-7,7A7,7,0,0,1,35.481,22Zm0,3a4,4,0,1,0,4,4A4,4,0,0,0,35.481,25Z" fill="#19263c"/>
    <path id="椭圆形-4" data-name="椭圆形" d="M35.481,31a2,2,0,1,0-2-2A2,2,0,0,0,35.481,31Z" fill="#19263c" fill-rule="evenodd"/>
    <rect id="切图范围" width="44" height="44" transform="translate(-0.384)" fill="rgba(255,255,255,0)"/>
  </g>
</svg>
