<svg id="icon-Virtual-Motorbike-44x44" xmlns="http://www.w3.org/2000/svg" width="44" height="44" viewBox="0 0 44 44">
  <g id="编组" transform="translate(42.512 7.322) rotate(180)">
    <path id="矩形" d="M16.531-10h4a1.5,1.5,0,0,0,1.5-1.5,1.5,1.5,0,0,0-1.5-1.5h-4a1.5,1.5,0,0,0-1.5,1.5A1.5,1.5,0,0,0,16.531-10Z" fill="#19263c"/>
    <path id="形状" d="M27.791.178A14.06,14.06,0,0,1,36.05,5.9a22.884,22.884,0,0,1,2.376,3.774,6.225,6.225,0,0,1,.562,1.591,1.929,1.929,0,0,1-1.859,2.492l-.372-.009c-.17-.009-.352-.024-.892-.073-2.569,0-4.478.154-6.36,1.75-2.57,2.18-3.431,6.041-6.682,5.983l-.218,0-2.833,0q-4.033-1.488-5.178-3.735c-1.956-3.625-4.437-3.625-6.554-3.641H7.354c-2.583,0-5.47-4.416-4.94-6.728C2.666,6.2,3.463,5.743,4.7,5.735a8.263,8.263,0,0,1,1.292.118l1.362.219A2.146,2.146,0,0,0,7.58,6.1h.029a16.929,16.929,0,0,1,6.163.919l.414.156.407.16.034.014.527.211.249.1.026.009.07-.059a9.64,9.64,0,0,1,4-2.311l.241-.054.229-.043a14.292,14.292,0,0,1,4.056-.089l.154.019L23.253,3.68c-.057-.09-.114-.18-.17-.272l-.171-.282-.134-.238c-.04-.073-.077-.148-.108-.217a1.881,1.881,0,0,1-.162-.544Q21.633-.615,27.791.178Zm-.616,3.744c.536.839,1.065,1.713,1.574,2.539l.075.132c.023.045.023.045.046.095a1.857,1.857,0,0,1,.1.853V7.7l-.052.106-.145.293a1.4,1.4,0,0,1-.857.818l-.123.038-.4.069a1.02,1.02,0,0,1-.289,0l-.242-.046-.312-.088-.2-.063q-.59-.189-1.191-.34a9.855,9.855,0,0,0-4.621.045,5.422,5.422,0,0,0-3.129,1.6,3.178,3.178,0,0,1-.251.2,2.816,2.816,0,0,1-2.67.3l-.242-.087c-.162-.063-.324-.127-.725-.287l-.152-.061c-.426-.17-.613-.243-.735-.287a16.055,16.055,0,0,0-4.96-.8l-.65,0a5.652,5.652,0,0,1-.805-.087l-.309-.051a2.116,2.116,0,0,0,.309,1.007,3.941,3.941,0,0,0,1.131,1.008h.323c2.976-.015,7.155,1.454,9.156,4.687a5.2,5.2,0,0,0,3.632,2.67l2.042.019c.465,0,1.539-.7,2.841-2.2l.181-.211q3.251-4.043,5.184-4.719a11.889,11.889,0,0,1,4.664-.614l.254,0-.2-.342q-.318-.52-.667-1.02l-.356-.494-.256-.342c-1.988-2.607-5.387-5.175-6.724-5.284l-.176-.008h-.585Z" transform="translate(41.381) rotate(180)" fill="#19263c"/>
    <path id="椭圆形" d="M7-14.678a7,7,0,0,0,7-7,7,7,0,0,0-7-7,7,7,0,0,0-7,7A7,7,0,0,0,7-14.678Zm0-3a4,4,0,0,1-4-4,4,4,0,0,1,4-4,4,4,0,0,1,4,4A4,4,0,0,1,7-17.678Z" fill="#19263c"/>
    <path id="椭圆形-2" data-name="椭圆形" d="M7-23.678a2,2,0,0,1,2,2,2,2,0,0,1-2,2,2,2,0,0,1-2-2A2,2,0,0,1,7-23.678Z" fill="#19263c" fill-rule="evenodd"/>
  </g>
  <path id="形状结合" d="M9,23a7,7,0,1,1-7,7A7,7,0,0,1,9,23ZM7.5,26.687H4.707L7.5,34h3.151l2.7-7.313h-2.95L9,31.315Z" fill="#19263c" fill-rule="evenodd"/>
  <rect id="切图范围" width="44" height="44" fill="rgba(255,255,255,0)"/>
</svg>
