<svg id="icon-E-Football-44x44" xmlns="http://www.w3.org/2000/svg" width="44" height="44" viewBox="0 0 44 44">
  <path id="形状结合" d="M22,6A16.01,16.01,0,0,1,36.854,27.957a7,7,0,1,1-10.336,9.4A16,16,0,1,1,22,6ZM35,29H29v8h6V35H31V34h4V32H31V31h4Zm-9.369,1.09H17.877l-2.869,2.871a13.038,13.038,0,0,0,10.178,1.645,7.026,7.026,0,0,1,.446-4.516ZM9.163,19.937A13.1,13.1,0,0,0,9,22a12.957,12.957,0,0,0,3.671,9.054l2.841-2.841L13.2,21.094ZM22,15.708l-5.984,4.347L18.3,27.09h7.4l2.285-7.035ZM34.844,19.98l-4.06,1.165-1.8,5.536a7.025,7.025,0,0,1,5.261-.312A12.945,12.945,0,0,0,35,22,13.1,13.1,0,0,0,34.844,19.98ZM23.5,9.086v4l6.931,5.035,3.61-1.035A13.013,13.013,0,0,0,23.5,9.086Zm-3,0A13.013,13.013,0,0,0,9.976,17.049l3.637,1.043,6.887-5Z" fill="#19263c"/>
  <rect id="切图范围" width="44" height="44" fill="rgba(255,255,255,0)"/>
</svg>
