<svg xmlns="http://www.w3.org/2000/svg" width="44" height="44" viewBox="0 0 44 44">
  <g id="icon-TableTennis-44x44" transform="translate(-0.151)">
    <path id="形状结合" d="M11.659,0a11.463,11.463,0,0,1,11.45,10.918l.2,4.178a8.5,8.5,0,0,1-8.086,8.895l-.105,0a3.02,3.02,0,0,1,.042.506v4a3,3,0,0,1-3,3h-1a3,3,0,0,1-3-3v-4a3.02,3.02,0,0,1,.042-.506A8.5,8.5,0,0,1,0,15.5q0-.2.01-.4l.2-4.178A11.463,11.463,0,0,1,11.659,0Zm0,22.5a.5.5,0,0,0-.5.5v6a.5.5,0,0,0,1,0V23A.5.5,0,0,0,11.659,22.5Zm7.769-4H3.89A5.5,5.5,0,0,0,8.5,21h6.317q.131,0,.262-.006A5.493,5.493,0,0,0,19.427,18.5ZM11.659,3a8.463,8.463,0,0,0-8.454,8.061l-.2,4.178Q3,15.369,3,15.5H20.318q0-.131-.006-.262l-.2-4.178A8.463,8.463,0,0,0,11.659,3Z" transform="matrix(0.574, 0.819, -0.819, 0.574, 30.715, 6.666)" fill="#19263c"/>
    <path id="椭圆形" d="M12,9a5,5,0,1,1-5,5A5,5,0,0,1,12,9Zm0,3a2,2,0,1,0,2,2A2,2,0,0,0,12,12Z" fill="#19263c"/>
    <rect id="切图范围" width="44" height="44" transform="translate(0.151)" fill="rgba(255,255,255,0)"/>
  </g>
</svg>
