<svg xmlns="http://www.w3.org/2000/svg" width="44" height="44" viewBox="0 0 44 44">
  <g id="icon-waterpolo-44x44" transform="translate(-0.109)">
    <path id="路径-2" d="M13.295,14.517a1.5,1.5,0,1,1,2.827,1c-.87,2.447.628,3.971,4.473,4.707a23.536,23.536,0,0,0,11.24-.767c.44-.17.965-1.11,1.34-2.962a1.5,1.5,0,1,1,2.94.595c-.558,2.758-1.545,4.526-3.2,5.165a26.449,26.449,0,0,1-12.885.915C14.626,22.141,11.658,19.121,13.295,14.517Z" fill="#19263c"/>
    <circle id="椭圆形" cx="4" cy="4" r="4" transform="translate(12.109 7)" fill="#19263c"/>
    <circle id="椭圆形-2" data-name="椭圆形" cx="3" cy="3" r="3" transform="translate(21.109 13)" fill="#19263c"/>
    <path id="路径-2-2" data-name="路径-2" d="M23.97,14.164a1.5,1.5,0,0,1,1.475,1.524A45.711,45.711,0,0,1,22.9,31.064,1.5,1.5,0,1,1,20.1,30a42.819,42.819,0,0,0,2.347-14.363A1.5,1.5,0,0,1,23.97,14.164Z" fill="#19263c"/>
    <path id="路径-2-3" data-name="路径-2" d="M11.092,27.892l.311,0a6.331,6.331,0,0,1,4.753,1.694l.061.052a3.018,3.018,0,0,0,2.374.93,5.65,5.65,0,0,0,2.856-.89l.038-.019.022-.011a8.106,8.106,0,0,1,4.173-1.183,5.119,5.119,0,0,1,3.468,1.342l.06.049a2.192,2.192,0,0,0,1.875.615,5.39,5.39,0,0,0,4.862-2.028,1.5,1.5,0,0,1,2.322,1.9,8.3,8.3,0,0,1-7.209,3.127,4.976,4.976,0,0,1-3.76-1.3l-.059-.049a2.2,2.2,0,0,0-1.625-.657,5.479,5.479,0,0,0-2.749.859l-.06.031a8.262,8.262,0,0,1-4.245,1.215,5.894,5.894,0,0,1-4.283-1.641l-.06-.051a3.492,3.492,0,0,0-2.851-.984c-2.32-.055-3.492.53-3.909,1.685a1.5,1.5,0,1,1-2.822-1.018c.92-2.551,3.318-3.75,6.766-3.667Z" fill="#19263c"/>
    <path id="路径-2备份" d="M13.564,33.462l.271.005a5.238,5.238,0,0,1,3.861,1.4l.044.037a2.078,2.078,0,0,0,1.6.668c.5,0,.851-.165,1.746-.785l.043-.03a5.354,5.354,0,0,1,3.467-1.287,6.563,6.563,0,0,1,2.973.917l.086.045a3.371,3.371,0,0,0,1.9.546h.1c.158.007.3.015.546.03l.057,0c2.045.121,2.607-.01,3.1-.821a1.5,1.5,0,0,1,2.566,1.555c-1.27,2.1-2.762,2.444-5.842,2.261l-.056,0c-.23-.014-.365-.021-.505-.027h.031l-.218,0a5.867,5.867,0,0,1-2.782-.74l-.283-.144-.087-.045a3.867,3.867,0,0,0-1.68-.582c-.468,0-.81.16-1.668.755l-.043.03a5.44,5.44,0,0,1-3.5,1.319,4.937,4.937,0,0,1-3.474-1.361l-.044-.037a2.426,2.426,0,0,0-1.99-.708c-1.513-.049-2.109.282-2.286.977A1.5,1.5,0,0,1,8.594,36.7c.575-2.25,2.505-3.323,5.241-3.234Z" fill="#19263c"/>
    <rect id="切图范围" width="44" height="44" transform="translate(0.109)" fill="rgba(255,255,255,0)"/>
  </g>
</svg>
