<svg xmlns="http://www.w3.org/2000/svg" width="44" height="44" viewBox="0 0 44 44">
  <g id="icon-AmericanFootball-44x44" transform="translate(-0.294)">
    <g id="编组" transform="translate(25.237 1.14) rotate(45)">
      <path id="椭圆形" d="M12,0c5.107,0,12,9.031,12,17.5C24,26.006,17.173,35,12,35S0,26.006,0,17.5C0,9.031,6.893,0,12,0Zm0,3C10.866,3,8.59,4.616,6.7,7.1A17.408,17.408,0,0,0,3,17.5,17.469,17.469,0,0,0,6.663,27.907C8.551,30.395,10.821,32,12,32s3.449-1.605,5.337-4.093A17.469,17.469,0,0,0,21,17.5,17.408,17.408,0,0,0,17.3,7.1C15.41,4.616,13.134,3,12,3Z" fill="#19263c"/>
      <path id="路径" d="M.848,0A23.484,23.484,0,0,0,7.37.865,23.552,23.552,0,0,0,13.83.018L14.667,2.9a26.53,26.53,0,0,1-7.3.967A26.461,26.461,0,0,1,0,2.878Z" transform="translate(4.63 5.135)" fill="#19263c"/>
      <path id="路径-2" data-name="路径" d="M7.58,0a26.31,26.31,0,0,1,7.527,1.035l-.872,2.871A23.336,23.336,0,0,0,7.58,3a23.284,23.284,0,0,0-6.7.919L0,1.051A26.258,26.258,0,0,1,7.58,0Z" transform="translate(4.42 26)" fill="#19263c"/>
      <rect id="矩形" width="3" height="14" rx="1.5" transform="translate(10.5 10.5)" fill="#19263c"/>
      <rect id="矩形-2" data-name="矩形" width="7" height="3" rx="1.5" transform="translate(8.5 13.5)" fill="#19263c"/>
      <rect id="矩形备份" width="7" height="3" rx="1.5" transform="translate(8.5 18.5)" fill="#19263c"/>
    </g>
    <rect id="切图范围" width="44" height="44" transform="translate(0.294)" fill="rgba(255,255,255,0)"/>
  </g>
</svg>
