<svg xmlns="http://www.w3.org/2000/svg" width="44" height="44" viewBox="0 0 44 44">
  <g id="icon-CS:GO-44x44" transform="translate(0.465)">
    <path id="形状" d="M32.365,8.5A3.148,3.148,0,0,1,35.5,11.635v20.73A3.148,3.148,0,0,1,32.365,35.5H11.635A3.148,3.148,0,0,1,8.5,32.365V11.635A3.148,3.148,0,0,1,11.635,8.5Z" fill="none" stroke="#19263c" stroke-width="3" fill-rule="evenodd"/>
    <path id="形状-2" data-name="形状" d="M17.036,20.963c-.112,0-.337-.113-.45-.113-.225,0-.225-.113-.225-.339.112-.678.112-1.357.225-2.148,0-.113.225-.226.225-.226.225,0,.45-.113.675-.113V16.78a3.737,3.737,0,0,1,.675-2.148,1.41,1.41,0,0,1,1.8-.565c.112,0,.112-.113.112-.226a5.478,5.478,0,0,1,0-1.357,1.772,1.772,0,0,1,2.024-1.47,7.539,7.539,0,0,1,1.349.678c.112,0,.112.226.112.339a1.934,1.934,0,0,1,.112.791c0,.226,0,.565-.337.678s-.337.339-.225.565c0,.113,0,.113.112.226l1.012-.339a.4.4,0,0,0,.112-.226c0-.113.112-.226.112-.452.112.226.112.565.337.565s.45.113.675.113h4.16c.112,0,.337.113.45.113a2.825,2.825,0,0,1,.112-.9H30.3c.112.339-.112.791.337.9a.859.859,0,0,1-.112.452H33v.565H28.053a1.592,1.592,0,0,0-.675.226,1.249,1.249,0,0,0-.337,1.583c0,.113,0,.113.112.226-.562,0-.562.452-.562.791a1.59,1.59,0,0,1-1.124,1.244c-.112.113-.225,0-.337,0-.675-.226-1.349-.565-2.136-.791,0,.113-.112.226-.112.452.675.226.562.9.562,1.357,0,.339-.112.791-.112,1.131a.417.417,0,0,1-.112.339c-.225.565-.225.678-.9.452a.88.88,0,0,0,.225,1.131,10.1,10.1,0,0,1,1.686,3.053c.112.339.337.565.337.9a5.534,5.534,0,0,1,.112,1.357,16.79,16.79,0,0,0-.112,2.374,4.037,4.037,0,0,1-.225,1.131c0,.339-.112.678-.112,1.018v.113a1.794,1.794,0,0,0,1.012,1.018c.112,0,.112,0,.225.113.45.226.562.226.45.791a6.769,6.769,0,0,1-2.136,0,1.9,1.9,0,0,0-.787-.113h-.45c-.225,0-.337-.113-.225-.339.112-.565.225-1.018.337-1.583a3.756,3.756,0,0,0,0-1.583,12.809,12.809,0,0,1-.337-2.035c0-.226.112-.565.112-.791a.673.673,0,0,0-.112-.791.412.412,0,0,0-.337-.113.848.848,0,0,1-.787-.452c-.112-.339-.337-.678-.45-1.018-.112-.226-.225-.452-.562-.452-.112,0-.225-.113-.337-.226s-.112-.226-.225-.339a6.765,6.765,0,0,0-.675,1.244,6.509,6.509,0,0,0-.45,1.583c0,.113-.112.226-.112.339a3.043,3.043,0,0,1-.787.9,1.288,1.288,0,0,0-.337.9,2.673,2.673,0,0,1-.225.9,4.74,4.74,0,0,1-.45,1.131c-.112.226-.337.452-.45.678a3.4,3.4,0,0,0-.45,1.131,2.8,2.8,0,0,0,.112,1.357V36H14.225C14,36,14,35.887,14,35.661a6.22,6.22,0,0,0,.45-1.357,2.216,2.216,0,0,0,.112-1.47c-.112-.226.112-.565.225-.791.112-.339.225-.678.337-1.131a5.861,5.861,0,0,1,.675-1.47,3.219,3.219,0,0,0,.45-1.47,8.773,8.773,0,0,1,.225-1.7v-.791c0-.339-.112-.791-.112-1.131,0-.113.112-.226.225-.339a.624.624,0,0,0,.225-.565,5.534,5.534,0,0,1-.112-1.357c-.225-.678-.225-1.018.337-1.131Zm8.32-4.635c-.45.113-.45.226,0,.791.112-.226.337-.452.45-.678a.846.846,0,0,0-.45-.113.839.839,0,0,0,.562-.113v-.452H25.58C25.467,15.989,25.355,16.1,25.355,16.328Z" fill="#19263c"/>
    <rect id="切图范围" width="44" height="44" transform="translate(-0.465)" fill="rgba(255,255,255,0)"/>
  </g>
</svg>
