<svg xmlns="http://www.w3.org/2000/svg" xmlns:xlink="http://www.w3.org/1999/xlink" width="28.004" height="28.004" viewBox="0 0 28.004 28.004">
  <defs>
    <clipPath id="clip-path">
      <rect id="矩形_2942" data-name="矩形 2942" width="28.004" height="28.004" transform="translate(2.98 2.98)" fill="#101010"/>
    </clipPath>
  </defs>
  <g id="icon_Me_Help_40x40" transform="translate(-85.996 -1223.998)">
    <g id="组_124586" data-name="组 124586" transform="translate(83.016 1221.018)">
      <g id="组_124585" data-name="组 124585" clip-path="url(#clip-path)">
        <g id="椭圆_200" data-name="椭圆 200" transform="translate(2.984 2.982)" fill="none" stroke="#b8b8b8" stroke-width="2">
          <circle cx="14" cy="14" r="14" stroke="none"/>
          <circle cx="14" cy="14" r="13" fill="none"/>
        </g>
        <path id="路径_110196" data-name="路径 110196" d="M65.839,46.219a7.935,7.935,0,0,0,1.189-1.3,2.831,2.831,0,0,0-.3-3.265,2.578,2.578,0,0,0-1.941-.707,2.7,2.7,0,0,0-2.507,1.3,1.18,1.18,0,0,1-1.516.491l-.144-.068a1.17,1.17,0,0,1-.518-1.633,4.3,4.3,0,0,1,1.376-1.493,6.152,6.152,0,0,1,3.489-.909,6.287,6.287,0,0,1,2.76.583,4.517,4.517,0,0,1,1.885,1.627,4.311,4.311,0,0,1,.673,2.389,4.674,4.674,0,0,1-.348,1.862,5.347,5.347,0,0,1-.864,1.4,20.71,20.71,0,0,1-1.481,1.492l-.381.359a3.946,3.946,0,0,0-.886,1.4,4.525,4.525,0,0,0-.222.979,1.169,1.169,0,0,1-1.156,1.029h-.049A1.167,1.167,0,0,1,63.732,50.5a7.741,7.741,0,0,1,.312-1.738,5.034,5.034,0,0,1,1.212-1.986ZM64.9,53.982a1.692,1.692,0,0,1,1.234.46,1.632,1.632,0,0,1,.471,1.223A1.587,1.587,0,0,1,64.9,57.37a1.63,1.63,0,0,1-1.223-.471,1.691,1.691,0,0,1-.46-1.234A1.582,1.582,0,0,1,64.9,53.982" transform="translate(-48.133 -31.021)" fill="#b8b8b8"/>
      </g>
    </g>
  </g>
</svg>
