<svg xmlns="http://www.w3.org/2000/svg" width="44" height="44" viewBox="0 0 44 44">
  <g id="icon-Boxing-44x44" transform="translate(-0.431)">
    <g id="编组" transform="translate(3.188 35.899) rotate(-80)">
      <path id="路径-3" d="M11.884,28.092c4.917,1.417,9.691-1.014,12.757-5.6,2.676-4.005,3.405-8.742,1.38-11.534l-.029-.035.015-.08c.352-2.293-.806-4.62-3.087-6.593L22.7,4.064A18.61,18.61,0,0,0,12.171.007L11.966,0l-.2.049C8.652.808,5.806,3.322,3.307,6.9,1.532,9.436,0,12.511,0,13.506A17.413,17.413,0,0,0,2.116,20.1,15.861,15.861,0,0,0,11.884,28.092Zm10.262-7.269c-2.405,3.6-5.931,5.4-9.431,4.386a12.892,12.892,0,0,1-7.961-6.541,16.376,16.376,0,0,1-1.741-4.954l-.007-.081c.019-.054.038-.107.061-.168l.037-.1c.127-.323.316-.74.546-1.2a28.652,28.652,0,0,1,2.116-3.55c2.12-3.033,4.466-5.106,6.712-5.653l-.2.053.142.006a15.828,15.828,0,0,1,8.083,3.123l.282.227c2.287,1.9,2.854,3.763,1.612,5.429-1.265,1.7-2.356,1.881-3,1.177-.8-.884-.719-2.691.681-4.439a1.5,1.5,0,0,0-2.342-1.875C15.476,9.493,15.313,12.94,17.183,15c1.807,1.987,4.59,1.777,6.8-.448l.165-.17.016.186a10.631,10.631,0,0,1-1.844,5.988Z" transform="translate(6.312 4.196)" fill="#19263c"/>
      <path id="矩形" d="M1.857,6.13A1.247,1.247,0,0,0,3,4.642,13.9,13.9,0,0,1,2.757,3.1a9.636,9.636,0,0,1,.11-1.788h0A1.165,1.165,0,0,0,1.685,0,1.592,1.592,0,0,0,.139,1.42Q0,2.7,0,3.079A16.014,16.014,0,0,0,.194,4.787h0A1.573,1.573,0,0,0,1.857,6.13Z" transform="matrix(0.766, 0.643, -0.643, 0.766, 8.419, 4.557)" fill="#19263c" fill-rule="evenodd"/>
      <path id="路径" d="M6.728,17.93A1.5,1.5,0,1,0,8.9,15.857L2.984,9.677,3,9.566a5.764,5.764,0,0,1,.165-.79l.066-.225a9.649,9.649,0,0,1,1.95-3.458A6.688,6.688,0,0,1,7.825,3.25,4.184,4.184,0,0,1,8.773,3l-.066.01,5.664,4.5a1.5,1.5,0,0,0,2.006-.127l.1-.115a1.5,1.5,0,0,0-.242-2.107L10.22.383c-1.448-1.1-5.151.285-7.3,2.731C.517,5.855-.772,10.028.5,11.414Z" fill="#19263c"/>
      <path id="路径-4" d="M1.237,14.569a1.5,1.5,0,1,0,2.507-1.648,5.061,5.061,0,0,1-.636-3.8C3.59,6.335,5.578,4.135,9.481,2.934A1.5,1.5,0,1,0,8.6.067C3.63,1.6.829,4.7.152,8.607A8.03,8.03,0,0,0,1.237,14.569Z" transform="translate(14.573 12.201)" fill="#19263c"/>
    </g>
    <rect id="切图范围" width="44" height="44" transform="translate(0.431)" fill="rgba(255,255,255,0)"/>
  </g>
</svg>
