<svg id="icon-Virtual-Speedway-44x44" xmlns="http://www.w3.org/2000/svg" width="44" height="44" viewBox="0 0 44 44">
  <path id="形状结合" d="M32.365,7A4.648,4.648,0,0,1,37,11.635v20.73A4.648,4.648,0,0,1,32.365,37L14.9,37a7,7,0,0,0,1.812-3H32.365A1.649,1.649,0,0,0,34,32.365V11.635A1.649,1.649,0,0,0,32.365,10H11.635A1.649,1.649,0,0,0,10,11.635V25a6.973,6.973,0,0,0-3,.674V11.635A4.648,4.648,0,0,1,11.635,7ZM25,12v.028q.367-.028.757-.028a7.511,7.511,0,0,1,3.256.628,3.042,3.042,0,0,1,1.668,1.583,9.549,9.549,0,0,1,.14,3.486l-.07.759H26.116l.131-1.423a3.8,3.8,0,0,0-.131-1.548c-.1-.182-.215-.237-.491-.237a.837.837,0,0,0-.716.368,2.278,2.278,0,0,0-.334,1.114,3.029,3.029,0,0,0,.128,1.446,2.933,2.933,0,0,0,1.226,1.138A13.01,13.01,0,0,1,29.9,22.6a7.1,7.1,0,0,1,.489,4.09,7.589,7.589,0,0,1-.758,3.023,4.291,4.291,0,0,1-2.005,1.63A7.745,7.745,0,0,1,24.368,32q-.187,0-.368-.007L17,32l0-.24A7.04,7.04,0,0,0,16.929,31H21V30H16.71a6.951,6.951,0,0,0-.383-1h2.939L20,29V28H15.745A7.035,7.035,0,0,0,15,27.1l0-.1h6V26H14V25H24.012a19.566,19.566,0,0,0-.268,2.056c-.068.945-.044,1.182.068,1.387a.687.687,0,0,0,.665.308.9.9,0,0,0,.777-.391A2.387,2.387,0,0,0,25.6,27.2a3.43,3.43,0,0,0-.258-2.217,12.894,12.894,0,0,0-2.175-1.743L22.833,23H14V22h8V21H12V20l8.04,0L21,20V19H14V18l5.8,0q.01-.292.039-.608.019-.2.041-.394H13V16h9V15H18V14h6V13H16V12Z" fill="#19263c"/>
  <path id="形状结合-2" data-name="形状结合" d="M10,25a7,7,0,1,1-7,7A7,7,0,0,1,10,25ZM8.5,28.687H5.707L8.5,36h3.151l2.7-7.313h-2.95L10,33.315Z" fill="#19263c" fill-rule="evenodd"/>
  <rect id="切图范围" width="44" height="44" fill="rgba(255,255,255,0)"/>
</svg>
