<svg id="icon-Cricket-44x44" xmlns="http://www.w3.org/2000/svg" width="44" height="44" viewBox="0 0 44 44">
  <path id="矩形" d="M12,0a2,2,0,0,1,2,2V24a2,2,0,0,1-2,2H2a2,2,0,0,1-2-2V2A2,2,0,0,1,2,0ZM11,3H3V23h8Z" transform="translate(31.053 6.378) rotate(47)" fill="#19263c"/>
  <path id="矩形-2" data-name="矩形" d="M7,0l.006,1.494.039,9.171a3.492,3.492,0,0,1-3.477,3.506H3.554A3.509,3.509,0,0,1,.045,10.678L.006,1.506,0,0ZM4.012,3h-1l.034,7.665a.509.509,0,0,0,.417.5l.091.008a.492.492,0,0,0,.492-.494Z" transform="translate(16.342 24.809) rotate(47)" fill="#19263c"/>
  <path id="椭圆形" d="M14,6a5,5,0,1,1-5,5A5,5,0,0,1,14,6Zm0,3a2,2,0,1,0,2,2A2,2,0,0,0,14,9Z" fill="#19263c"/>
  <rect id="切图范围" width="44" height="44" fill="rgba(255,255,255,0)"/>
</svg>
