<svg xmlns="http://www.w3.org/2000/svg" width="45.255" height="45.255" viewBox="0 0 45.255 45.255">
  <g id="icon-BeachVolleyball-44x44" transform="translate(-0.097 -0.151)">
    <g id="编组" transform="translate(0 22.876) rotate(-45)">
      <path id="椭圆形" d="M16,0A16,16,0,1,1,0,16,16,16,0,0,1,16,0Zm0,3A13,13,0,1,0,29,16,13,13,0,0,0,16,3Z" transform="translate(0.138)" fill="#19263c"/>
      <path id="路径" d="M9.867,0c6.58,0,9.725,3.789,9.885,5.6.036.412.045.724.05,1.373v.034c.114,5.169-.132,8.907-.766,11.279l-2.9-.775c.543-2.031.773-5.531.664-10.459V7c0-.569-.012-.827-.038-1.132C16.7,5.117,14.676,3.01,9.953,3.01S3.141,5.361,3.1,5.738c-.036.31-.048.548-.064,1.158l0,.058,0,.08,0,.058a50.7,50.7,0,0,0,.76,10.547l-2.954.523a53.694,53.694,0,0,1-.8-11.169c0-.085,0-.085.005-.179A14.225,14.225,0,0,1,.117,5.392C.313,3.713,3.287,0,9.867,0Z" transform="translate(6.222 10.5)" fill="#19263c"/>
      <rect id="矩形" width="3" height="17" transform="translate(12.138 13)" fill="#19263c"/>
      <rect id="矩形备份" width="3" height="17" transform="translate(17.138 13)" fill="#19263c"/>
      <path id="路径-2" data-name="路径" d="M4.81,0,7.615,1.063A10.019,10.019,0,0,1,.742,7.209L0,4.3A7.019,7.019,0,0,0,4.81,0Z" transform="translate(22.376 7.981)" fill="#19263c"/>
      <path id="路径-3" data-name="路径" d="M4.81,0,7.615,1.063A10.019,10.019,0,0,1,.742,7.209L0,4.3A7.019,7.019,0,0,0,4.81,0Z" transform="translate(24.83 13.993) rotate(9)" fill="#19263c"/>
      <path id="路径-4" data-name="路径" d="M4.654,7.091,7.459,6.028A9.622,9.622,0,0,0,.742,0L0,2.907A6.624,6.624,0,0,1,4.654,7.091Z" transform="translate(8.476 21.113) rotate(171)" fill="#19263c"/>
      <path id="路径-5" data-name="路径" d="M4.81,7.209,7.615,6.146A10.019,10.019,0,0,0,.742,0L0,2.907A7.019,7.019,0,0,1,4.81,7.209Z" transform="translate(9.96 15.189) rotate(180)" fill="#19263c"/>
      <path id="路径-6" data-name="路径" d="M10.83,0c5.06,0,8.085,2.154,11.09,5.377L19.726,7.423C17.27,4.789,15.255,3,10.83,3S4.576,4.7,2.151,7.2L0,5.106C2.972,2.05,5.771,0,10.83,0Z" transform="translate(5.306 5.175)" fill="#19263c"/>
    </g>
    <rect id="切图范围" width="44" height="44" transform="translate(0.714 0.752)" fill="rgba(255,255,255,0)"/>
  </g>
</svg>
