<svg xmlns="http://www.w3.org/2000/svg" width="44" height="44" viewBox="0 0 44 44">
  <g id="icon-Basketball-44x44" transform="translate(0.041)">
    <path id="椭圆形" d="M22,6A16,16,0,1,1,6,22,16,16,0,0,1,22,6Zm0,3A13,13,0,1,0,35,22,13,13,0,0,0,22,9Z" transform="translate(-0.222)" fill="#19263c"/>
    <path id="形状结合" d="M8.2,15.5A22.37,22.37,0,0,1,5.076,25.522L2.5,23.984A19.367,19.367,0,0,0,5.189,15.5H0v-3H5.189A19.367,19.367,0,0,0,2.524,4.056L5.1,2.523A22.37,22.37,0,0,1,8.2,12.5h4.3V0h3V12.5h4.05a22.37,22.37,0,0,1,3.094-9.977l2.579,1.532A19.367,19.367,0,0,0,22.557,12.5H28v3H22.557a19.367,19.367,0,0,0,2.689,8.483l-2.576,1.538A22.37,22.37,0,0,1,19.549,15.5H15.5V28h-3V15.5Z" transform="translate(21.778 2.201) rotate(45)" fill="#19263c" fill-rule="evenodd"/>
    <rect id="切图范围" width="44" height="44" transform="translate(-0.041)" fill="rgba(255,255,255,0)"/>
  </g>
</svg>
