<svg id="icon-FLoorball-44x44" xmlns="http://www.w3.org/2000/svg" width="44" height="44" viewBox="0 0 44 44">
  <path id="形状" d="M39.1,7.157a1.568,1.568,0,0,1,.743,2.107L28.166,33.085l-.034.059a7.534,7.534,0,0,1-4.51,3.348,19.014,19.014,0,0,1-8.527.07c-4.421-.762-7.3-1.8-9.018-3.222a5.512,5.512,0,0,1-1.805-2.533,5.894,5.894,0,0,1-.2-2.686,7.954,7.954,0,0,1,2.02-4.552,4.257,4.257,0,0,1,4.647-1.046,27.129,27.129,0,0,0,12.469,1.8c3.484-.406,5.938-1.631,7.17-3.006l0,0L36.961,7.892a1.592,1.592,0,0,1,.914-.8A1.62,1.62,0,0,1,39.1,7.157ZM27.84,26.5a19.4,19.4,0,0,1-3.813.9l-1.193,2.373a20.1,20.1,0,0,0,3.843-.9L27.842,26.5Zm-9.565,1-1.138,2.265a22.263,22.263,0,0,0,3.829.174l1.188-2.361a26.872,26.872,0,0,1-3.88-.077Zm-5.157-.91-.989,1.969a24.979,24.979,0,0,0,3.361.931l1.1-2.19a32.567,32.567,0,0,1-3.473-.71ZM9.6,25.474a1.043,1.043,0,0,0-1.232.309,3.039,3.039,0,0,0-.526.744,20.154,20.154,0,0,0,2.792,1.449l.919-1.832q-.986-.307-1.954-.669ZM7.241,28.54a2.8,2.8,0,0,0,.069,1.284,2.387,2.387,0,0,0,.818,1.1,5.56,5.56,0,0,0,.768.523l1.033-2.055a22.875,22.875,0,0,1-2.6-1.325q-.049.238-.082.478Zm6.453,4.534,1.067-2.123a26.582,26.582,0,0,1-3.343-.971l-1.072,2.134a23.567,23.567,0,0,0,3.347.96Zm1.954.383a25.838,25.838,0,0,0,3.366.374l1.154-2.294a24.22,24.22,0,0,1-3.775-.282L15.318,33.4c.107.023.217.041.329.059Zm7.058.014a4.376,4.376,0,0,0,2.648-1.888l.377-.771a21.924,21.924,0,0,1-3.738.644L20.814,33.8A9.311,9.311,0,0,0,22.705,33.471ZM19,20a6,6,0,1,0-6-6A6,6,0,0,0,19,20Z" fill="#19263c"/>
  <rect id="切图范围" width="44" height="44" fill="rgba(255,255,255,0)"/>
</svg>
