<svg xmlns="http://www.w3.org/2000/svg" width="44" height="44" viewBox="0 0 44 44">
  <g id="icon-E-Basketball-44x44" transform="translate(0.199)">
    <path id="形状结合" d="M22,6A16.01,16.01,0,0,1,36.854,27.957a7,7,0,1,1-10.336,9.4A16,16,0,1,1,22,6ZM35,29H29v8h6V35H31V34h4V32H31V31h4Zm-9.876,2.68-.17.284a19.326,19.326,0,0,0-1.4,2.943,12.71,12.71,0,0,0,1.634-.3,7.051,7.051,0,0,1-.062-2.927ZM22,24.121l-8.07,8.071A12.938,12.938,0,0,0,20.38,34.9a22.345,22.345,0,0,1,4.484-7.915Zm-5.164-5.163a22.372,22.372,0,0,1-7.761,4.435,12.925,12.925,0,0,0,2.732,6.678L19.878,22Zm18.073,4.595-.3.113A19.35,19.35,0,0,0,29.958,26.3a7.039,7.039,0,0,1,4.289.066A12.91,12.91,0,0,0,34.908,23.552Zm-2.717-9.623L24.121,22l2.863,2.864A22.371,22.371,0,0,1,34.9,20.378,12.927,12.927,0,0,0,32.192,13.929Zm-20.384,0a12.939,12.939,0,0,0-2.682,6.257l.051-.019a19.378,19.378,0,0,0,5.532-3.336ZM23.392,9.074l-.011.036a22.372,22.372,0,0,1-4.424,7.727L22,19.878l8.071-8.071A12.937,12.937,0,0,0,23.392,9.074Zm-3.2.053-.3.044a12.941,12.941,0,0,0-5.962,2.638l2.9,2.9A19.377,19.377,0,0,0,20.187,9.126Z" fill="#19263c"/>
    <rect id="切图范围" width="44" height="44" transform="translate(-0.199)" fill="rgba(255,255,255,0)"/>
  </g>
</svg>
