<svg xmlns="http://www.w3.org/2000/svg" width="40" height="40" viewBox="0 0 40 40">
  <g id="icon_Bank_card" data-name="icon_Bank card" transform="translate(0.391 0.391)">
    <path id="路径_110263" data-name="路径 110263" d="M0,0H40V40H0Z" transform="translate(-0.391 -0.391)" fill="#202425" opacity="0.01"/>
    <path id="减去_23" data-name="减去 23" d="M14847.607-3503.39h-30a2,2,0,0,1-2-2v-20a2,2,0,0,1,2-2h30a2,2,0,0,1,2,2v20A2,2,0,0,1,14847.607-3503.39Zm-27-8a1,1,0,0,0-1,1,1,1,0,0,0,1,1h13a1,1,0,0,0,1-1,1,1,0,0,0-1-1Zm0-4a1,1,0,0,0-1,1,1,1,0,0,0,1,1h8a1,1,0,0,0,1-1,1,1,0,0,0-1-1Z" transform="translate(-14812.998 3535.001)" fill="#0cd664"/>
    <rect id="矩形_3232" data-name="矩形 3232" width="32" height="4" transform="translate(3.609 10.611)" fill="#fff" opacity="0.286"/>
  </g>
</svg>
