<svg id="icon-Volleyball-44x44" xmlns="http://www.w3.org/2000/svg" width="44" height="44" viewBox="0 0 44 44">
  <path id="椭圆形" d="M22,6A16,16,0,1,1,6,22,16,16,0,0,1,22,6Zm0,3A13,13,0,1,0,35,22,13,13,0,0,0,22,9Z" fill="#19263c"/>
  <path id="路径-2" d="M21.46,6.57,24,7.36l-.647,1.353a14.649,14.649,0,0,0,0,12.639L24,22.706,21.294,24l-.647-1.353a17.649,17.649,0,0,1,0-15.229Z" fill="#19263c"/>
  <path id="路径-2-2" data-name="路径-2" d="M2.374,0,5.081,1.295,4.433,2.648A14.444,14.444,0,0,0,3,8.967a14.444,14.444,0,0,0,1.433,6.319l.647,1.353L2.374,17.935l-.647-1.353A17.443,17.443,0,0,1,0,8.967,17.443,17.443,0,0,1,1.727,1.353Z" transform="translate(9.741 32.635) rotate(-120)" fill="#19263c"/>
  <path id="路径-2-3" data-name="路径-2" d="M2.374,0,5.081,1.295,4.433,2.648A14.444,14.444,0,0,0,3,8.967a14.444,14.444,0,0,0,1.433,6.319l.647,1.353L2.374,17.935l-.647-1.353A17.443,17.443,0,0,1,0,8.967,17.443,17.443,0,0,1,1.727,1.353Z" transform="translate(35.445 31.089) rotate(135)" fill="#19263c"/>
  <path id="路径-2-4" data-name="路径-2" d="M4.593,0,4.181,1.442A27.369,27.369,0,0,0,3.068,11.1a17.1,17.1,0,0,0,1.91,7.193l.747,1.3-2.6,1.494-.747-1.3a19.972,19.972,0,0,1-2.3-8.456A30.344,30.344,0,0,1,1.3.617Z" transform="translate(38.474 22.559) rotate(128)" fill="#19263c"/>
  <path id="路径-2-5" data-name="路径-2" d="M2.563,0,5.044.6,4.376,1.942A15.624,15.624,0,0,0,3,9.045,21.987,21.987,0,0,0,3.934,16.5l.546,1.4L1.686,18.989l-.546-1.4A24.419,24.419,0,0,1,0,9.055,18.518,18.518,0,0,1,1.69.606Z" transform="translate(10.613 9.935) rotate(-8)" fill="#19263c"/>
  <path id="路径-2-6" data-name="路径-2" d="M1.782,0,4.366,1.121,3.758,2.492a14.512,14.512,0,0,0-.673,6.715,25.95,25.95,0,0,0,1.163,6.7l.537,1.4-2.8,1.075-.537-1.4A28.329,28.329,0,0,1,.094,9.439a17.169,17.169,0,0,1,.922-8.163Z" transform="matrix(-0.515, -0.857, 0.857, -0.515, 15.349, 37.372)" fill="#19263c"/>
  <rect id="切图范围" width="44" height="44" fill="rgba(255,255,255,0)"/>
</svg>
