<svg id="icon-MMA-44x44" xmlns="http://www.w3.org/2000/svg" width="44" height="44" viewBox="0 0 44 44">
  <path id="形状结合" d="M31.3,28.885q1.5.163,3.193.419l.028,0-4.28,7.414h-17L9.113,29.58l.11-.018q1.274-.22,3.073-.466l2.672,4.627H28.5Zm-4.243-15.67,1.707,2.957-.839.061-4.56.327-.709.051-.285-.015-.733-.037-4.583-.234L16,16.272v12.3l1.071-.076,3.01-.213.051,0h4.08l.73.056,2.975.227.077.005.551.059-1.491,2.585H16.66l-1.44-2.495.772-.082V16.272l-1.042-.1,1.71-2.959Zm3.184-5.938,4.6,7.972q-.857.2-1.5.31-.731.121-1.638.248L28.5,10.278H14.969L11.76,15.835q-1.15-.137-2.118-.276-.51-.074-1.089-.167l4.684-8.114Z" fill="#19263c"/>
  <path id="形状结合-2" data-name="形状结合" d="M14.992,17.589v9.847l-2.975.318V19.9l-.983,7.979-3.049.473L7.01,20.084v8.441L3.834,29V16l4.743.767q.153.721.919,4.906l.921-4.641Zm13,.145v9.532l-2.975-.227V20.364l-1,6.616H20.991l-.981-6.465V26.98L17,27.193V17.828l4.583.234q.153.589.913,3.751l.727-2.976.209-.775Zm9.663-1.462L41.833,29l-3.693-.449-.962-2.528H32.81l-.655,1.689-2.969-.321L32.81,17.22Zm-2.667,3.019L33.709,23h2.559Z" fill="#19263c"/>
  <rect id="切图范围" width="44" height="44" fill="rgba(255,255,255,0)"/>
</svg>
