<svg xmlns="http://www.w3.org/2000/svg" width="44" height="44" viewBox="0 0 44 44">
  <g id="icon-Futsal-44x44" transform="translate(-0.4)">
    <path id="椭圆形" d="M22,6A16,16,0,1,1,6,22,16,16,0,0,1,22,6Zm0,3A13,13,0,1,0,35,22,13,13,0,0,0,22,9Z" fill="#19263c"/>
    <path id="多边形" d="M29.645,19.919l3.71,5.924-5.028,6.076L21.51,29.75l.814-7.416Z" fill="#19263c" fill-rule="evenodd"/>
    <path id="多边形-2" data-name="多边形" d="M5.257,0l5.257,3.82L8.507,10h-6.5L0,3.82Z" transform="matrix(0.966, -0.259, 0.259, 0.966, 9.381, 14.448)" fill="#19263c" fill-rule="evenodd"/>
    <path id="多边形备份-2" d="M4.5,0,9,3.269,7.281,8.56,0,3.269Z" transform="translate(8.911 26.798) rotate(5)" fill="#19263c" fill-rule="evenodd"/>
    <path id="多边形备份" d="M4.28,0,6.925,8.141H1.635L0,3.109Z" transform="translate(24.468 10.29) rotate(-24)" fill="#19263c" fill-rule="evenodd"/>
    <path id="路径-5" d="M28.686,11.792v3a14.589,14.589,0,0,0-5.4.973,22.643,22.643,0,0,0-4.561,2.381l-1.7-2.471a25.623,25.623,0,0,1,5.163-2.7A17.581,17.581,0,0,1,28.686,11.792Z" fill="#19263c"/>
    <path id="路径-5-2" data-name="路径-5" d="M10.808,0l.952,2.845L.952,6.464,0,3.619Z" transform="translate(19.932 15.448) rotate(54)" fill="#19263c"/>
    <path id="路径-5-3" data-name="路径-5" d="M1.619,0A25.005,25.005,0,0,1,4.644,2.2,39.177,39.177,0,0,1,7.63,5.324L5.383,7.311a37.041,37.041,0,0,0-2.73-2.863A22.342,22.342,0,0,0,0,2.526Z" transform="translate(27.978 26.548) rotate(54)" fill="#19263c"/>
    <path id="路径-5-4" data-name="路径-5" d="M1.619,7.311a25.005,25.005,0,0,0,3.025-2.2A39.178,39.178,0,0,0,7.63,1.987L5.383,0a37.04,37.04,0,0,1-2.73,2.863A22.342,22.342,0,0,1,0,4.785Z" transform="matrix(0.914, 0.407, -0.407, 0.914, 31.343, 19.916)" fill="#19263c"/>
    <path id="路径-5-5" data-name="路径-5" d="M1.619,0A25.006,25.006,0,0,1,4.644,2.2,39.178,39.178,0,0,1,7.63,5.324L5.383,7.311a37.041,37.041,0,0,0-2.73-2.863A22.342,22.342,0,0,0,0,2.526Z" transform="translate(5.726 20.867) rotate(-65)" fill="#19263c"/>
    <path id="路径-5-6" data-name="路径-5" d="M1.619,7.311a25.006,25.006,0,0,0,3.025-2.2A39.178,39.178,0,0,0,7.63,1.987L5.383,0a37.041,37.041,0,0,1-2.73,2.863A22.342,22.342,0,0,1,0,4.785Z" transform="translate(21.09 12.606) rotate(141)" fill="#19263c"/>
    <path id="路径-5-7" data-name="路径-5" d="M11.659,0V3a14.589,14.589,0,0,0-5.4.973A22.643,22.643,0,0,0,1.7,6.354L0,3.883a25.623,25.623,0,0,1,5.163-2.7A17.581,17.581,0,0,1,11.659,0Z" transform="translate(34.661 16.129) rotate(123)" fill="#19263c"/>
    <path id="路径-5-8" data-name="路径-5" d="M0,3.619A24.133,24.133,0,0,1,4.862,1.078,16.085,16.085,0,0,1,10.808,0" transform="translate(26.352 30.344) rotate(175)" fill="none" stroke="#19263c" stroke-width="3" fill-rule="evenodd"/>
    <path id="路径-5-9" data-name="路径-5" d="M0,3.619A24.133,24.133,0,0,1,4.862,1.078,16.085,16.085,0,0,1,10.808,0" transform="translate(11.108 28.943) rotate(-67)" fill="none" stroke="#19263c" stroke-width="3" fill-rule="evenodd"/>
    <rect id="切图范围" width="44" height="44" transform="translate(0.4)" fill="rgba(255,255,255,0)"/>
  </g>
</svg>
