<svg xmlns="http://www.w3.org/2000/svg" width="44" height="44" viewBox="0 0 44 44">
  <g id="icon-Darts-44x44" transform="translate(0.481)">
    <path id="形状结合" d="M22,6a15.926,15.926,0,0,1,7.993,2.136L28.256,10.6a12.994,12.994,0,1,0,5.114,5.091l2.355-1.921A16,16,0,1,1,22,6Zm0,6a9.954,9.954,0,0,1,5.788,1.844l-2.127,2.188a7,7,0,1,0,2.322,2.331l2.146-2.189A10,10,0,1,1,22,12Zm0,6a3.989,3.989,0,0,1,1.475.281l-.219.226-.1.121-1.973,2.8a1,1,0,0,0,1.367,1.411l2.865-1.888.163-.134.181-.183A4,4,0,1,1,22,18Z" fill="#19263c"/>
    <rect id="切图范围" width="44" height="44" transform="translate(-0.481)" fill="rgba(255,255,255,0)"/>
    <path id="矩形" d="M28.7,11.716,32,7.021,33.285,10.4l3.613,1.13L32.4,15.19l-2-.724-5.542,5.646L22,22l1.973-2.8,5.5-5.656Z" fill="#d8d8d8" fill-rule="evenodd"/>
    <path id="矩形-2" data-name="矩形" d="M28.7,11.716,32,7.021,33.285,10.4l3.613,1.13L32.4,15.19l-2-.724-5.542,5.646L22,22l1.973-2.8,5.5-5.656Z" fill="#19263c" fill-rule="evenodd"/>
  </g>
</svg>
