<svg xmlns="http://www.w3.org/2000/svg" width="44" height="44" viewBox="0 0 44 44">
  <g id="icon-Tennis-44x44" transform="translate(-0.418)">
    <path id="形状结合" d="M22,6A16,16,0,1,1,6,22,16,16,0,0,1,22,6Zm0,3a12.956,12.956,0,0,0-5.22,1.091,9.287,9.287,0,0,0,5.454,2.773c9.495,1.5,14.53,12.757,6.944,17.686-6.441,4.185-13.326.243-15.875-6.42-.534-1.4-2.244-2.942-4.175-3.958A13,13,0,1,0,22,9Zm-7.819,2.614-.087.065a13.038,13.038,0,0,0-4.183,5.53c2.775,1.3,5.3,3.523,6.194,5.848,1.949,5.1,6.895,7.928,11.438,4.976,4.883-3.173,1.345-11.084-5.777-12.207A11.732,11.732,0,0,1,14.181,11.614Z" transform="translate(0.115)" fill="#19263c"/>
    <path id="路径" d="M16.2,8.862c.142,1.543,2.9,3.507,6.036,4,9.495,1.5,14.53,12.757,6.944,17.686-6.441,4.185-13.326.243-15.875-6.42-.716-1.872-3.544-4.011-6.188-4.785l.843-2.879c3.465,1.014,7.051,3.727,8.147,6.592,1.949,5.1,6.895,7.928,11.438,4.976,4.883-3.173,1.345-11.084-5.777-12.207-4.333-.683-8.26-3.479-8.556-6.689Z" transform="translate(0.115)" fill="#19263c"/>
    <rect id="切图范围" width="44" height="44" transform="translate(0.418)" fill="rgba(255,255,255,0)"/>
  </g>
</svg>
